<svg xmlns="http://www.w3.org/2000/svg" viewBox="0 0 512 512" id="calling"><path d="m432.712 387.295-52.765-61.943c-1.407-1.65-2.974-3.4-5.098-3.837-2.774-.571-5.413 1.273-7.646 3.015l-37.884 29.521c-7.563 5.894-16.94 12.135-26.008 9.014-5.251-1.809-8.967-6.4-12.39-10.775l-59.469-76.045-.362-.478c-19.051-25.934-38.1-51.869-57.149-77.803-3.289-4.477-6.705-9.295-7.028-14.84-.555-9.574 7.987-16.915 15.706-22.605l38.658-28.498c2.28-1.68 4.77-3.722 4.969-6.549.153-2.163-1.108-4.143-2.318-5.943l-45.381-67.54c-5.169-7.692-10.934-15.859-19.686-18.906-10.21-3.553-21.302.892-31.162 5.323-16.415 7.377-33.369 15.38-44.647 29.402-18.864 23.455-17.664 58.15-15.551 86.501 2.476 33.204 13.958 67.346 27.307 97.603 13.795 31.274 31.901 60.547 53.229 87.27 19.951 27.713 43.213 53.017 69.561 74.721 25.526 21.027 55.295 41.307 86.596 52.662 26.726 9.695 59.807 20.224 87.486 8.399 16.548-7.07 28.835-21.231 40.371-35.042 6.93-8.297 14.208-17.775 13.545-28.565-.568-9.25-6.873-17.008-12.884-24.062z"></path><path d="M340.293 218.749c1.543-4.286-.686-9.026-4.982-10.568-4.286-1.553-9.026.696-10.568 4.982l-25.09 69.723a8.27 8.27 0 0 0 1.22 7.825 8.27 8.27 0 0 0 7.241 3.197l73.838-6.182a8.247 8.247 0 0 0 7.543-8.915c-.373-4.558-4.407-7.926-8.915-7.543l-46.155 3.86 98.11-74.37c3.63-2.753 4.346-7.936 1.593-11.577-2.763-3.64-7.936-4.377-11.577-1.593L324.86 261.64l15.433-42.891zm-97.536-10.135a8.238 8.238 0 0 0 4.982-1.674l98.13-74.377-16.204 43.408c-1.593 4.266.585 9.026 4.861 10.629a8.254 8.254 0 0 0 2.884.514 8.265 8.265 0 0 0 7.745-5.375l25.907-69.431a8.273 8.273 0 0 0-1.129-7.836c-1.694-2.249-4.256-3.63-7.21-3.287l-73.908 5.325c-4.548.323-7.977 4.286-7.644 8.834.333 4.558 4.488 8.249 8.834 7.644l45.455-3.272-97.702 74.055c-3.63 2.753-4.346 7.936-1.593 11.577a8.254 8.254 0 0 0 6.592 3.266z"></path></svg>