<svg xmlns="http://www.w3.org/2000/svg" width="512" height="512" fill-rule="evenodd" clip-rule="evenodd" image-rendering="optimizeQuality" shape-rendering="geometricPrecision" text-rendering="geometricPrecision" viewBox="0 0 512 512" id="certificate"><path fill-rule="nonzero" d="M506 419.63c3.31,0 6,-2.69 6,-6l0 -374.11c0,-3.31 -2.69,-6 -6,-6l-500 0c-3.31,0 -6,2.69 -6,6l0 374.11c0,3.31 2.69,6 6,6l313.11 0 0 -25.65 -276.09 0c-9.94,0 -18,-8.07 -18,-18l0 -298.81c0,-9.93 8.06,-18 18,-18l425.96 0c9.94,0 18,8.07 18,18l0 298.81c0,9.93 -8.06,18 -18,18l-56.67 0 0 25.65 93.69 0zm-266.26 -72.42c-37.06,10.36 -56.29,-10.07 -66.88,-21.32l-1.4 -1.49c-0.68,1.96 -1.53,4.06 -2.59,6.15 -1.8,3.56 -4.2,7.09 -7.37,9.87 -7.8,6.81 -17.05,-0.29 -23.65,-7.79 -6.86,17.67 -25.25,18.98 -25.32,18.98 -3.28,0.3 -6.19,-2.12 -6.49,-5.41 -0.29,-3.29 2.13,-6.2 5.42,-6.49 0.04,-0.01 16.92,-1.18 16.92,-21.97 0,-3.31 2.69,-6 6,-6 2.36,0 4.39,1.36 5.38,3.33 1.49,2.53 11.18,18.69 13.86,16.35 1.87,-1.63 3.37,-3.9 4.57,-6.26 1.28,-2.55 2.2,-5.22 2.82,-7.42 2.03,-7.24 5.54,-9.29 10.83,-7.81 3.33,0.94 6.07,3.85 9.74,7.75 8.83,9.38 24.86,26.42 54.98,18 3.18,-0.88 6.48,0.99 7.36,4.17 0.88,3.19 -0.99,6.48 -4.18,7.36zm172.57 34.77l56.67 0c3.32,0 6,-2.69 6,-6l0 -298.81c0,-3.31 -2.68,-6 -6,-6l-425.96 0c-3.32,0 -6,2.69 -6,6l0 298.81c0,3.31 2.68,6 6,6l276.09 0 0 -35.95 -4.81 0c-9.93,0 -18,-8.06 -18,-18l0 -22.66 -16.02 -16.02c-1,-1.01 -1.86,-2.11 -2.58,-3.27 0,3.32 -2.69,6 -6,6l-196.48 0c-3.31,0 -6,-2.68 -6,-6 0,-3.31 2.69,-6 6,-6l196.48 0c1.55,0 2.96,0.59 4.02,1.56 -1.76,-6.1 -0.24,-12.95 4.56,-17.75l16.03 -16.02 0 -22.66c0,-9.93 8.06,-18 17.99,-18l22.66 0 16.03 -16.02c7.02,-7.02 18.43,-7.02 25.45,0l16.02 16.02 22.66 0c9.94,0 18,8.07 18,18l0 22.66 16.02 16.02c7.03,7.03 7.03,18.43 0,25.46l-16.02 16.02 0 22.66c0,9.94 -8.06,18 -18,18l-4.81 0 0 35.95zm-140.61 -149.42l-196.48 0c-3.31,0 -6,-2.69 -6,-6 0,-3.31 2.69,-6 6,-6l196.48 0c3.31,0 6,2.69 6,6 0,3.31 -2.69,6 -6,6zm165.08 -59.52l-361.56 0c-3.31,0 -6,-2.69 -6,-6 0,-3.32 2.69,-6 6,-6l361.56 0c3.31,0 6,2.68 6,6 0,3.31 -2.69,6 -6,6zm0 -59.53l-361.56 0c-3.31,0 -6,-2.68 -6,-6 0,-3.31 2.69,-6 6,-6l361.56 0c3.31,0 6,2.69 6,6 0,3.32 -2.69,6 -6,6zm-105.67 232.52l0 126.45c0,1.44 0.52,2.9 1.58,4.05 2.24,2.44 6.03,2.61 8.47,0.37l-0.01 -0.02 23.9 -21.88 24.99 21.69c1.09,1.1 2.6,1.79 4.27,1.79 3.31,0 6,-2.69 6,-6l0 -126.45 -5.85 0 -16.02 16.02c-7.03,7.03 -18.43,7.03 -25.45,0l-16.03 -16.02 -5.85 0zm0 -12l10.82 0 19.54 19.54c2.34,2.34 6.14,2.34 8.48,0l19.54 -19.54 10.82 0 16.81 0c3.31,0 6,-2.69 6,-6l0 -27.63 19.54 -19.54c2.34,-2.34 2.34,-6.14 0,-8.48l-19.54 -19.54 0 -27.63c0,-3.31 -2.68,-6 -6,-6l-27.63 0 -19.53 -19.54c-2.35,-2.34 -6.15,-2.34 -8.49,0l-19.54 19.54 -27.63 0c-3.31,0 -6,2.69 -6,6l0 27.63 -19.53 19.54c-2.35,2.34 -2.35,6.14 0,8.48l19.53 19.54 0 27.63c0,3.31 2.69,6 6,6l16.81 0zm-0.12 -57.41c0,-19.16 15.57,-34.72 34.72,-34.72 19.17,0 34.72,15.56 34.72,34.72 0,19.16 -15.56,34.72 -34.72,34.72 -19.16,0 -34.72,-15.56 -34.72,-34.72zm12 0c0,12.56 10.16,22.72 22.72,22.72 12.56,0 22.72,-10.15 22.72,-22.72 0,-12.56 -10.15,-22.72 -22.72,-22.72 -12.56,0 -22.72,10.16 -22.72,22.72z"></path></svg>