<svg xmlns="http://www.w3.org/2000/svg" enable-background="new 0 0 64 64" viewBox="0 0 64 64" id="contact-book"><path d="M44.6,58.7H22.2c-3.5,0-6.7-1.4-9.2-3.8c-2.5-2.5-3.8-5.7-3.8-9.2c0-0.6,0.4-1,1-1s1,0.4,1,1c0,2.9,1.1,5.7,3.2,7.8
	s4.8,3.2,7.8,3.2h22.4c2.9,0,5.7-1.1,7.8-3.2c2.1-2.1,3.2-4.8,3.2-7.8v-28c0-2.9-1.1-5.7-3.2-7.8c-2.1-2.1-4.8-3.2-7.8-3.2H22.2
	c-2.9,0-5.7,1.1-7.8,3.2s-3.2,4.8-3.2,7.8c0,0.6-0.4,1-1,1s-1-0.4-1-1c0-3.5,1.4-6.7,3.8-9.2c2.5-2.5,5.7-3.8,9.2-3.8h22.4
	c3.5,0,6.7,1.4,9.2,3.8c2.5,2.5,3.8,5.7,3.8,9.2v28c0,3.5-1.4,6.7-3.8,9.2C51.3,57.4,48,58.7,44.6,58.7z"></path><path d="M10.3 30.8c-2.8 0-5-2.2-5-5s2.2-5 5-5 5 2.2 5 5S13.1 30.8 10.3 30.8zM10.3 22.8c-1.7 0-3 1.3-3 3s1.3 3 3 3 3-1.3 3-3S12 22.8 10.3 22.8zM10.3 42.4c-2.8 0-5-2.2-5-5s2.2-5 5-5 5 2.2 5 5S13.1 42.4 10.3 42.4zM10.3 34.4c-1.7 0-3 1.3-3 3s1.3 3 3 3 3-1.3 3-3S12 34.4 10.3 34.4zM45.4 33.2c-.8-1.9-2.1-3.5-3.9-4.7-.8-.5-1.1-1.6-.7-2.5.6-1.2.8-2.7.6-4.2-.5-3-3-5.4-6-5.7-4.5-.5-8.1 3-7.9 7.4.2 2.9 2.2 5.4 5 6.2 2 .6 4 .2 5.5-.7 2.7 1.1 4.5 2.8 5.4 5 1.3 3 .8 6.6.2 8.7-.2.9-1 1.5-1.9 1.5H27.2c-.8 0-1.6-.5-1.9-1.3-2.3-6.7 2.1-11.3 2.3-11.5.4-.4.4-1 0-1.4s-1-.4-1.4 0c0 .1-6.4 6.7-1.9 15.7.2.4.5.6.9.6H44c.4 0 .7-.3.8-.7C44.9 45.3 47.8 38.8 45.4 33.2zM29.5 22.6c.2-2 1.5-3.7 3.4-4.3 3.5-1.1 7 1.7 6.6 5.3-.3 2.4-2.3 4.3-4.7 4.4C31.7 28.1 29.3 25.7 29.5 22.6z"></path></svg>