<svg xmlns="http://www.w3.org/2000/svg" width="24" height="24" fill="none" viewBox="0 0 24 24" id="logout"><path fill="#000" fill-rule="evenodd" d="M2 13H14V11H2V13Z" clip-rule="evenodd"></path><path fill="#000" fill-rule="evenodd" d="M4.79282 7.79289L1.29282 11.2929C.902294 11.6834.902294 12.3166 1.29282 12.7071L4.79282 16.2071 6.20703 14.7929 3.41414 12 6.20703 9.20711 4.79282 7.79289zM14.5954 5.5C12.1159 5.5 9.95745 6.93099 8.89246 9.03855L7.10742 8.13653C8.49483 5.39092 11.3226 3.5 14.5954 3.5 19.2491 3.5 22.9999 7.31769 22.9999 12 22.9999 16.6823 19.2491 20.5 14.5954 20.5 11.3226 20.5 8.49483 18.6091 7.10742 15.8635L8.89246 14.9615C9.95745 17.069 12.1159 18.5 14.5954 18.5 18.1205 18.5 20.9999 15.602 20.9999 12 20.9999 8.39803 18.1205 5.5 14.5954 5.5z" clip-rule="evenodd"></path></svg>