<?xml version="1.0" encoding="utf-8"?>
<!-- Svg Vector Icons : http://www.onlinewebfonts.com/icon -->
<!DOCTYPE svg PUBLIC "-//W3C//DTD SVG 1.1//EN" "http://www.w3.org/Graphics/SVG/1.1/DTD/svg11.dtd">
<svg version="1.1" xmlns="http://www.w3.org/2000/svg" xmlns:xlink="http://www.w3.org/1999/xlink" x="0px" y="0px" viewBox="0 0 1000 1000" enable-background="new 0 0 1000 1000" xml:space="preserve">
<metadata> Svg Vector Icons : http://www.onlinewebfonts.com/icon </metadata>
<g><path d="M500,10c-193.3,0-350,156.7-350,350c0,74.1,23.1,142.7,62.3,199.3c1.8,3.2,3.6,6.4,5.9,9.2l238.5,300.3c12,15.4,27.6,23.2,43.3,23.2s31.3-7.7,43.3-23.2l238.5-300.3c2.2-2.8,4-5.9,5.8-9.1C826.8,502.8,850,434.1,850,360C849.9,166.7,693.3,10,500,10L500,10z M730,519.5l-1.8,2.6l-1.4,2.6l-1.2,2L500,810.8l-225.5-284l-1.4-2.4l-1.5-2.6l-1.7-2.5C237.2,472.4,220,417.3,220,360c0-154.4,125.6-280,280-280c154.4,0,280,125.6,280,280C779.9,417.3,762.7,472.5,730,519.5L730,519.5z M500,220c-77.4,0-140,62.7-140,140c0,77.3,62.7,139.9,140,139.9c77.4,0,140-62.7,140-140C640,282.7,577.3,220,500,220L500,220z M500,430c-38.6,0-70-31.4-70-70c0-38.6,31.4-69.9,70-69.9c38.6,0,70,31.4,70,70C570,398.7,538.6,430,500,430L500,430z M687.6,813c20.7,12.3,32.8,26.8,32.8,42.2c0,44.7-98.7,80.8-220.5,80.8c-121.8,0-220.5-36.2-220.5-80.8c0-15.5,12.2-29.9,32.8-42.2c-35.7,18.7-57.3,42.9-57.3,69.2C255,941.8,364.6,990,500,990c135.2,0,245-48.2,245-107.8C745,855.9,723.4,831.8,687.6,813L687.6,813z"/></g>
</svg>