<?xml version="1.0" encoding="utf-8"?>
<!-- Svg Vector Icons : http://www.onlinewebfonts.com/icon -->
<!DOCTYPE svg PUBLIC "-//W3C//DTD SVG 1.1//EN" "http://www.w3.org/Graphics/SVG/1.1/DTD/svg11.dtd">
<svg version="1.1" xmlns="http://www.w3.org/2000/svg" xmlns:xlink="http://www.w3.org/1999/xlink" x="0px" y="0px" viewBox="0 0 1000 1000" enable-background="new 0 0 1000 1000" xml:space="preserve">
<metadata> Svg Vector Icons : http://www.onlinewebfonts.com/icon </metadata>
<g><path d="M64.4,990v-36.3h871.1V990H64.4"/><path d="M681.5,921.4h-90.7V404.2l-129-96.7L191.5,442.7v478.8h-127v-36.3h90.7V420.3L465.6,265l161.4,121v499.1h54.4V921.4z"/><path d="M245.9,481.9l145.2-72.6v95.3l-145.2,49.9V481.9z"/><path d="M245.9,627l145.2-49.9v86.2l-145.2,43.8V627z"/><path d="M245.9,772.2l145.2-36.3v108.9l-145.2,13.6V772.2z"/><path d="M745,99.2v822.2h57.2V172L745,99.2z"/><path d="M463.7,365.6v555.8h72.6V422.9L463.7,365.6z"/><path d="M935.6,921.4h-90.7v-738L748,54.4L336.7,225.7v75.8l-36.3,21.1v-121L760.1,10l121,161.3v713.8h54.4V921.4z"/></g>
</svg>