<?xml version="1.0" encoding="utf-8"?>
<!-- Svg Vector Icons : http://www.onlinewebfonts.com/icon -->
<!DOCTYPE svg PUBLIC "-//W3C//DTD SVG 1.1//EN" "http://www.w3.org/Graphics/SVG/1.1/DTD/svg11.dtd">
<svg version="1.1" xmlns="http://www.w3.org/2000/svg" xmlns:xlink="http://www.w3.org/1999/xlink" x="0px" y="0px" viewBox="0 0 1000 1000" enable-background="new 0 0 1000 1000" xml:space="preserve">
<metadata> Svg Vector Icons : http://www.onlinewebfonts.com/icon </metadata>
<g><path d="M500,990C229.4,990,10,770.6,10,500c0-25.6,2.6-50.6,6.3-75.1v-12.7c0,0,0.6,0.6,1.7,1.6C58.9,184.3,258.9,10,500,10c270.6,0,490,219.4,490,490C990,770.6,770.6,990,500,990z M734.8,406.8c0.8-5.4,1.3-11,1.3-16.6c0-7.9-0.8-15.7-2.3-23.2c44.2-4.9,91.4-7.1,142.3-5.6c-16.6-45.1-40.9-86.4-71.6-122.3c-22.5,12.5-59.4,36-97.4,73.5c-7.5-8.7-16.3-16.2-26-22.4c38.5-40.2,74.9-66.4,96-80c-32.3-30.9-69.7-56.3-110.8-75.1c-37,4.2-131.1,19.9-230.3,77.5c1.2,3.9,2,7.9,2.2,12.1c36.8,17.7,75.7,39.9,113.5,66.9c-8.3,5.6-15.8,12.3-22.5,19.8c-28.7-20.9-61.3-40.5-98.6-58.3c-8.6,13.2-23.4,22-40.4,22c-11.1,0-21.3-3.9-29.4-10.3c-59,48.5-114.8,115-156.4,205.9c10,8.8,16.4,21.6,16.4,36c0,7.9-2.1,15.3-5.5,21.9c17.2,9.3,35.7,18.6,55.4,27.6c10.9-10.4,25.6-16.9,41.8-16.9c5.1,0,10,0.8,14.8,2c45.9-41.8,104.4-82.5,177.6-114.7c4.4,13.6,11.2,26,19.8,36.9c-57.4,23.8-114.2,55.8-165,98.7c7.5,9.4,12.2,21,13.1,33.8c49.3,16.1,103.3,29.5,161.9,37.4c2.2-51.7,11.4-98.3,24.8-140.2c9.8,5.5,20.5,9.7,31.7,12.3c-11.8,39.1-19.6,82.8-21.5,132c36.4,3.5,74.3,4.9,113.6,3.7c5.7-15.5,17.5-28.1,32.6-34.6c-6.7-37.7-18.1-76.8-36.1-115.7c11.4-7.1,21.6-16,30-26.4c22.3,41.2,38.9,87.6,46.9,139.6c14.9,4.3,27.3,14,35.1,26.9c30.4-4.6,61.6-11.3,93.3-19.4c10.3-35.5,16.1-72.9,16.1-111.8c0-36.4-5.3-71.5-14.3-105C859.2,395,803.5,396.5,734.8,406.8z M253.8,585.6c-23-11.2-44-22.7-63.1-34.1c-5.6,2.3-11.7,3.6-18.1,3.6c-0.1,0-0.1,0-0.2,0c-12.1,39.3-21.8,82.3-28.5,129.3c10.6,20.3,22.9,39.5,36.6,57.7c9.5-22.1,32.3-69.2,74.6-123.1c-2-6-3.3-12.2-3.3-18.9C251.8,595.1,252.6,590.2,253.8,585.6z M609.6,835.1c0,5.8-9.4,24.2-12.1,28.9c2.9,10.8,4.7,11.5,8,22.7c36.3-9.9,70.4-24.7,101.8-43.7c6.5-26.6,14.8-70,16.5-122.6c-21.9-6.1-38.9-24-43.3-46.5c-38.6,1.7-75.6,0.9-111.1-1.9c0.8,42.5,6,83.4,16.6,133.4C594.8,811.3,609.6,823.8,609.6,835.1z M873.5,645.8c-24.8,6-49.2,11.3-73,15.4c0,0.4,0.1,0.7,0.1,1.1c0,26.5-17.1,48.8-40.7,57c-2.6,31.4-7.9,64.4-16.5,99.1C801.2,774.1,846.5,714.7,873.5,645.8z M500,901.2c25.9,0,51.2-2.7,75.8-7.4c-2.6-7.9-5.1-15.7-7.5-23.5c-0.1,0-0.3,0-0.4,0c-18,0-32.6-14.6-32.6-32.7c0-12.2,6.8-22.7,16.7-28.3c-11.4-50.3-17-97.3-17.7-140.9c-62.1-7.5-118.7-21-169.6-37.8c-10.6,17.9-29.8,30-52.1,30c-13,0-25-4.2-34.8-11.1c-27.1,36.8-49.9,79.2-67.5,127.3C283.2,853.3,385.9,901.2,500,901.2z M118.8,624.7c4-21,10.5-49.4,21.2-82.5c-9.3-8.6-15.2-20.7-15.5-34.3c-9.4-6.9-17.6-13.2-25.1-19.2c-0.1,3.8-0.6,7.5-0.6,11.4C98.8,543.6,106,585.4,118.8,624.7z M101.3,456.3c9.3,7,20,14.6,32,22.7c8.7-12.3,23-20.4,39.3-20.4c0.1,0,0.2,0,0.3,0c34.2-73.3,88-153.8,170.8-219.8c-1-3.8-1.6-7.7-1.6-11.8c0-3.1,0.3-6.1,0.9-9.1c-30.3-10.3-62.8-19.6-97.8-27.8C166.4,255,112.9,349.4,101.3,456.3z M278.6,165.6c17.7,4.7,45.7,12.8,79.9,25.4c8.5-7.5,19.5-12.1,31.7-12.1c10.5,0,20.2,3.5,28.1,9.2c56.3-31.7,122.9-56.6,201.7-70.9c-37.9-11.9-78.2-18.3-120-18.3C418.1,98.8,342.1,123.5,278.6,165.6z M616.9,473.1c-46.5,0-84.2-37.7-84.2-84.2c0-46.5,37.7-84.2,84.2-84.2c46.5,0,84.2,37.7,84.2,84.2C701.1,435.4,663.4,473.1,616.9,473.1z M616.9,351.9c-20.4,0-37,16.6-37,37c0,20.4,16.6,37,37,37c20.4,0,37-16.6,37-37C653.9,368.5,637.4,351.9,616.9,351.9z"/></g>
</svg>