<?xml version="1.0" encoding="utf-8"?>
<!-- Svg Vector Icons : http://www.onlinewebfonts.com/icon -->
<!DOCTYPE svg PUBLIC "-//W3C//DTD SVG 1.1//EN" "http://www.w3.org/Graphics/SVG/1.1/DTD/svg11.dtd">
<svg version="1.1" xmlns="http://www.w3.org/2000/svg" xmlns:xlink="http://www.w3.org/1999/xlink" x="0px" y="0px" viewBox="0 0 1000 1000" enable-background="new 0 0 1000 1000" xml:space="preserve">
<metadata> Svg Vector Icons : http://www.onlinewebfonts.com/icon </metadata>
<g><g transform="translate(0.000000,512.000000) scale(0.100000,-0.100000)"><path d="M4397.1,4511.8L3708,4008.4l-1047-1.9H1612.1v-759.9v-761.8l-746.5-541.7c-411.5-296.7-746.5-547.4-746.5-557c0-24.9,4766-3621.4,4792.8-3615.7c13.4,3.8,1140.8,819.2,2505.5,1810.7L9900,1388.1l-736.9,557l-736.9,557v752.2v752.2h-993.4h-993.4l-671.8,507.2c-367.5,279.5-671.8,507.2-675.7,505.3C5088,5019,4776,4791.3,4397.1,4511.8z M8116.1,2088.6l-5.7-1592.5L6508.3-667.6L4906.2-1833.3L3417.1-705.9L1927.9,419.5l-5.7,1630.8l-3.8,1630.8h3100.8h3100.8L8116.1,2088.6z"/><path d="M4799,3269.6c-629.7-116.8-1131.2-442.1-1464.3-949.4c-128.2-195.2-214.4-392.4-283.3-647c-44-164.6-49.8-220.1-49.8-518.7c0-390.5,26.8-524.5,168.4-813.5c218.2-451.7,631.6-782.9,1154.2-922.6c174.2-47.9,216.3-51.7,580-51.7c459.4-1.9,616.3,24.9,1008.7,168.4c19.1,7.7-3.8,111-80.4,350.3c-3.8,13.4-45.9,7.6-130.2-23c-260.3-95.7-652.7-139.7-922.6-107.2c-248.8,30.6-379,67-580,166.5c-323.5,158.9-555.1,447.9-658.4,825c-59.3,218.2-59.3,713.9,0,934.1c164.6,599.1,583.8,1020.2,1181,1182.9c214.4,57.4,658.4,57.4,872.8-1.9c434.5-118.7,740.8-396.2,872.8-794.3c45.9-139.7,51.7-185.7,51.7-424.9c0-365.6-53.6-555.1-210.5-750.3c-114.8-139.7-313.9-201-409.6-124.4c-74.7,59.3-68.9,185.7,26.8,826.9c47.9,321.6,88,593.4,88,606.8c0,32.5-189.5,97.6-388.6,132.1c-239.3,42.1-583.8,28.7-769.5-30.6c-227.8-72.7-388.5-166.5-547.4-325.4c-237.3-235.4-357.9-505.3-375.2-842.2c-21-369.4,109.1-641.2,369.4-765.6c122.5-61.3,375.2-74.6,526.4-30.6c145.5,40.2,325.4,162.7,413.4,277.5c40.2,51.7,78.5,95.7,84.2,95.7c7.7,1.9,23-36.4,36.4-82.3c28.7-107.2,114.8-212.5,216.3-264.1c111-57.4,394.3-70.8,568.5-24.9c419.2,109.1,725.4,457.5,826.9,941.7c30.6,155,36.4,231.6,28.7,436.4c-11.5,275.6-42.1,409.6-139.7,618.2c-206.7,449.8-601,761.8-1138.9,903.4C5513,3296.4,5026.8,3311.7,4799,3269.6z M5321.6,1834c5.7-3.8-68.9-511.1-86.1-581.9c-26.8-107.2-84.2-214.4-158.9-296.7c-158.9-172.3-342.6-162.7-438.3,21.1c-34.5,68.9-24.9,310.1,17.2,438.3c74.6,218.2,250.7,390.5,440.2,426.8C5166.5,1855.1,5300.5,1851.3,5321.6,1834z"/><path d="M100-1944.3c0-1560,3.8-2834.7,9.6-2834.7c15.3,0,3617.6,2813.7,3621.4,2829c1.9,7.7-750.3,599.1-1671,1315C1139.3,80.7,320.1,716.2,241.6,777.5L100,888.5V-1944.3z"/><path d="M8020.4-527.9C6990.6-1303.1,6152.3-1942.4,6154.2-1952c1.9-7.7,844.1-645,1870-1418.3l1866.2-1403l5.7,1412.6c1.9,779,1.9,2050,0,2829l-5.7,1412.6L8020.4-527.9z"/><path d="M2395-3492.8L756.5-4769.5l2132.3-5.7c1171.4-1.9,3089.3-1.9,4262.6,0l2132.3,5.7L7561-3496.6C6611.6-2796.1,5825-2221.9,5811.6-2218c-13.4,3.8-218.2-124.4-457.5-283.3c-264.1-176.1-440.2-283.3-455.5-273.7c-13.4,7.6-202.9,137.8-423,287.1c-220.1,151.2-409.6,273.7-421.1,273.7C4043-2216.1,3296.5-2790.3,2395-3492.8z"/></g></g>
</svg>