<svg xmlns="http://www.w3.org/2000/svg" viewBox="0 0 40 40" id="key"><path d="M9.4 29.8c-2.4 0-4.9-.9-6.7-2.8-3.7-3.7-3.7-9.8 0-13.5 3.3-3.3 8.5-3.7 12.3-1 .4.3.5 1 .2 1.4-.3.4-.9.5-1.4.2-3-2.2-7.1-1.9-9.7.8-2.9 2.9-2.9 7.7 0 10.6 2.9 2.9 7.7 2.9 10.6 0 .1-.1.2-.2.3-.4.4-.4 1-.5 1.4-.1.4.4.5 1 .1 1.4-.1.2-.3.3-.4.4-1.9 2.1-4.3 3-6.7 3z"></path><path d="M9.4 24.6c-1.1 0-2.2-.4-3-1.3-.8-.8-1.3-1.9-1.3-3s.4-2.2 1.3-3c.8-.8 1.9-1.3 3-1.3s2.2.4 3 1.3c.4.4.4 1 0 1.4-.4.4-1 .4-1.4 0-.9-.9-2.4-.9-3.2 0-.4.4-.7 1-.7 1.6 0 .6.2 1.2.7 1.6.9.9 2.4.9 3.2 0 .4-.4 1-.4 1.4 0 .4.4.4 1 0 1.4-.8.9-1.9 1.3-3 1.3zM36 25.8c-1.4 0-2.1-.8-2.6-1.3s-.7-.7-1.2-.7-.7.2-1.2.7c-.5.6-1.2 1.3-2.6 1.3-1.4 0-2.1-.8-2.6-1.3s-.7-.7-1.2-.7-.7.2-1.2.7c-.5.6-1.2 1.3-2.6 1.3-1.4 0-2.1-.8-2.6-1.3-.4-.4-.6-.6-.9-.7-.5-.1-.9-.7-.8-1.2s.7-.9 1.2-.8c.9.2 1.5.8 1.9 1.2.5.5.7.7 1.2.7s.7-.2 1.2-.7c.5-.6 1.2-1.3 2.6-1.3 1.4 0 2.1.8 2.6 1.3s.7.7 1.2.7.7-.2 1.2-.7c.5-.6 1.2-1.3 2.6-1.3 1.4 0 2.1.8 2.6 1.3.3.3.5.5.7.6l2.3-3.4-2.3-3.5H16.6c-.6 0-1-.4-1-1s.4-1 1-1H36c.3 0 .6.2.8.4l3 4.5c.2.3.2.8 0 1.1l-3 4.5c-.2.5-.5.6-.8.6z"></path></svg>