<?xml version="1.0" encoding="utf-8"?>
<!-- Svg Vector Icons : http://www.onlinewebfonts.com/icon -->
<!DOCTYPE svg PUBLIC "-//W3C//DTD SVG 1.1//EN" "http://www.w3.org/Graphics/SVG/1.1/DTD/svg11.dtd">
<svg version="1.1" xmlns="http://www.w3.org/2000/svg" xmlns:xlink="http://www.w3.org/1999/xlink" x="0px" y="0px" viewBox="0 0 1000 1000" enable-background="new 0 0 1000 1000" xml:space="preserve">
<metadata> Svg Vector Icons : http://www.onlinewebfonts.com/icon </metadata>
<g><g transform="translate(0.000000,511.000000) scale(0.100000,-0.100000)"><path d="M4558,5004.4C3354.8,4887,2280.8,4366,1449.5,3498.9c-362-375.9-622.5-751.8-855.2-1229.1c-167.1-344.1-260.5-592.7-348-932.7C146.8,951.2,115,704.6,103.1,249.2C91.1-206.3,113-488.7,186.6-856.6l47.7-232.7L459.1-1316c260.5-262.5,459.4-419.6,682.2-535c264.5-135.2,264.5-135.2,171,37.8c-145.2,264.5-300.3,690.1-377.9,1040.2c-33.8,153.1-81.5,487.3-81.5,582.7v83.6h704h704l11.9-93.5c6-53.7,15.9-167.1,23.9-254.5c11.9-173,79.6-604.6,93.5-620.5c8-5.9,401.7,181,427.6,202.9c4,4-8,97.4-23.9,210.8c-15.9,113.3-35.8,284.4-43.8,381.8l-11.9,173h815.4H4371L4792.7,96c230.7,111.4,409.7,206.8,397.8,210.8c-15.9,6-21.9,292.4-21.9,1006.3v1000.4l284.4,13.9c367.9,17.9,843.3,65.6,1117.7,111.4c198.9,33.8,220.8,35.8,242.6,6c13.9-15.9,73.6-179,133.3-362c113.3-346,212.8-787.6,252.6-1131.6l23.9-204.9l127.3,125.3c69.6,69.6,163.1,171,204.8,224.7l77.6,101.4l-37.8,186.9c-69.6,332.1-210.8,775.6-365.9,1155.5c-11.9,25.8,27.9,43.8,202.9,95.5c119.3,33.8,320.2,101.4,443.5,151.2l226.7,85.5l73.6-81.5l73.6-81.5l13.9,55.7c8,31.8,8,129.3,2,218.8c-27.9,377.9-244.6,791.5-626.5,1189.3c-147.2,153.1-224.7,214.8-350,282.4c-465.4,252.6-1034.2,435.5-1612.9,521.1C5429.1,5012.3,4804.6,5028.3,4558,5004.4z M4750.9,3500.8v-769.7l-183,13.9c-395.8,29.8-1177.4,133.3-1205.2,161.1c-23.9,23.9,290.4,523.1,463.4,735.9c165.1,202.9,342.1,395.8,455.4,493.2c111.4,95.5,159.1,109.4,435.5,131.3C4748.9,4268.5,4750.9,4218.8,4750.9,3500.8z M5566.3,4173.1c332.1-272.5,716-735.9,992.4-1201.2l43.7-71.6l-55.7-11.9c-188.9-39.8-813.4-113.4-1203.2-141.2l-175-13.9v769.7v769.7l155.1-13.9C5460.9,4246.6,5486.8,4236.7,5566.3,4173.1z M6477.2,3998c258.5-97.5,570.8-258.5,821.4-423.6c224.7-149.2,475.3-350,475.3-379.9c0-27.8-745.8-238.7-763.7-214.8c-4,4-35.8,59.7-71.6,125.3c-149.2,268.5-381.9,598.6-590.7,841.3c-59.7,67.6-99.4,123.3-85.5,123.3C6274.3,4069.6,6371.8,4037.8,6477.2,3998z M3539.7,3906.6c-137.2-169.1-389.8-548.9-499.2-747.8l-89.5-165.1l-73.6,8c-39.8,6-208.8,47.7-373.9,93.5c-350,99.4-346,73.6-53.7,300.3c200.9,155.1,455.4,316.2,672.2,427.6c171,85.5,453.4,204.8,491.2,206.8C3629.2,4029.9,3595.4,3974.2,3539.7,3906.6z M2404.1,2699.4c125.3-41.8,256.6-83.5,292.4-89.5l63.6-13.9l-41.8-103.4c-79.6-202.9-196.9-564.8-254.6-789.6c-99.4-395.8-139.2-658.3-190.9-1266.9l-11.9-125.3h-704h-704v95.5c0,210.8,91.5,690.1,188.9,988.4c169,513.1,481.3,1070,797.5,1422l69.6,77.6l133.2-59.7C2115.7,2800.8,2278.8,2739.1,2404.1,2699.4z M3358.7,2468.7c230.7-41.8,765.7-105.4,994.4-119.3c103.4-6,236.7-15.9,294.3-21.9l103.4-9.9V1313.2V310.8H3742.6H2736.2l13.9,250.6c23.9,471.3,97.5,916.8,220.8,1372.3c71.6,256.6,183,564.8,204.8,564.8C3183.7,2498.5,3265.3,2484.6,3358.7,2468.7z"/><path d="M8189.5,3936.4c352-354,457.4-930.8,298.3-1646.7c-113.4-513.1-360-1020.2-654.3-1346.4c-61.6-69.6-91.5-115.3-73.6-115.3c61.7,0,387.8,127.3,566.8,218.8c365.9,190.9,668.2,423.6,978.5,749.8l202.9,214.8l-11.9,169c-47.7,676.2-395.8,1274.8-942.7,1624.9c-101.4,65.6-443.5,244.6-467.4,244.6C8080.2,4049.8,8125.9,3998,8189.5,3936.4z"/><path d="M9337.1,1414.6l-296.3-298.3l23.9-109.4c39.8-196.9,81.5-505.2,81.5-600.6v-95.5h-706h-704l-13.9,101.4l-13.9,99.4l-190.9-11.9c-288.4-17.9-286.4-17.9-276.4-109.4l7.9-79.6l-696.1-4l-696.1-6l-45.7-179c-23.9-97.5-45.7-190.9-45.7-202.9c0-19.9,161.1-25.8,739.8-25.8h737.8l-11.9-232.7C7217-606,7159.3-976,7085.8-1280.2c-109.4-445.5-342.1-1074-399.8-1074c-13.9,0-155.1,21.9-310.2,47.7c-324.2,55.7-920.8,117.3-1060,107.4l-93.5-5.9l-196.9-775.6c-107.4-425.6-200.9-777.6-204.8-783.6c-6-4-21.9,4-39.8,17.9c-25.8,21.9-29.8,5.9-29.8-137.2v-161.1l-123.3,11.9c-232.7,23.8-240.6,25.9-393.8,196.9c-77.6,87.5-206.8,246.6-284.4,352c-137.2,187-143.2,190.9-192.9,167.1c-27.8-13.9-119.3-51.7-202.9-81.5c-85.5-29.8-155.1-59.7-155.1-67.6c0-6,53.7-85.5,119.3-175c63.6-91.5,109.4-165,99.4-165c-31.8,0-312.2,115.3-455.4,187l-135.2,69.6l-157.1-27.9c-365.9-63.7-739.8-55.7-1030.2,19.9c-63.6,17.9-119.3,27.9-123.3,23.8c-13.9-13.9,342.1-292.3,582.7-449.5c1507.5-1004.3,3462.5-1083.9,5067.5-204.9c411.7,224.8,751.8,483.3,1103.8,837.3C9283.4-2535.2,9766.7-1516.9,9882-377.3c35.8,344.1,15.9,988.4-39.8,1302.7c-41.8,238.7-163.1,716-192.9,763.7C9639.4,1705,9530,1609.5,9337.1,1414.6z M9146.2-188.4c0-218.8-105.4-737.9-212.8-1050.1c-171-497.2-493.2-1044.1-845.2-1431.9l-93.5-103.4l-234.7,87.5c-129.3,49.7-310.3,113.4-403.7,143.2c-93.5,29.8-173,57.7-175,61.6c-4,2,41.8,129.3,101.4,280.4c244.6,612.6,379.9,1191.3,431.6,1823.7c9.9,141.2,19.9,260.5,19.9,262.5c0,4,318.2,8,706,8h706V-188.4z M5852.7-2672.4c324.2-41.8,628.5-93.5,642.4-107.4c15.9-13.9-274.5-479.3-419.6-676.2c-77.5-103.4-208.8-268.5-294.3-365.9c-169.1-196.9-133.3-181-477.3-214.8l-135.2-13.9v722v721.9l192.9-13.9C5466.9-2628.6,5689.6-2652.5,5852.7-2672.4z M7248.8-2940.9c131.3-37.8,278.4-85.5,326.2-105.4l87.5-35.8l-109.4-87.5c-159.1-127.3-441.5-306.3-654.3-415.7c-188.9-97.5-497.2-228.7-509.1-216.8c-4,4,51.7,87.5,121.3,185c125.3,175,413.7,642.4,439.5,712C6966.4-2859.3,6972.4-2861.3,7248.8-2940.9z"/><path d="M4601.7-331.6c-471.4-232.7-1225.1-604.6-1678.5-825.4l-823.4-405.7l300.3-177c167.1-99.4,302.3-185,302.3-194.9c0-41.8-131.3-188.9-212.8-242.6c-383.8-242.6-942.7-220.8-1483.6,57.7c-183,91.5-371.9,220.8-489.2,330.1l-65.6,61.7l13.9-69.6c8-37.8,41.8-143.2,73.6-230.7c192.9-537,719.9-1034.2,1282.8-1209.2c527-163.1,1282.8-61.6,1968.9,266.5l204.8,97.5l314.2-204.9c171-113.3,318.2-200.9,324.2-192.9c11.9,11.9,853.2,3317.3,853.2,3349.1c0,8-6,13.9-13.9,13.9C5462.9,90.1,5071.1-98.9,4601.7-331.6z"/></g></g>
</svg>